PathFileType	4	(X/Y/Z)	C:/Users/beibeiliu/ov580/test_trc\sequence.30_training_dense_left.trc
DataRate	CameraRate	NumFrames	NumMarkers	Units	OrigDataRate	OrigDataStartFrame	OrigNumFrames
120	120	9	19	mm	120	133	354
Frame#	Time	ThumbCMC			ThumbMCP			ThumbIP			ThumbTip			IndexMCP			IndexPIP			IndexTip			MiddleMCP			MiddlePIP			MiddleTip			RingMCP			RingPIP			RingTip			PinkyMCP			PinkyPIP			PinkyTip			BackHand1			BackHand2			BackHand3	
		X0	Y0	Z0	X1	Y1	Z1	X2	Y2	Z2	X3	Y3	Z3	X4	Y4	Z4	X5	Y5	Z5	X6	Y6	Z6	X7	Y7	Z7	X8	Y8	Z8	X9	Y9	Z9	X10	Y10	Z10	X11	Y11	Z11	X12	Y12	Z12	X13	Y13	Z13	X14	Y14	Z14	X15	Y15	Z15	X16	Y16	Z16	X17	Y17	Z17	X18	Y18	Z18	
132	1.1	-272.221	-11.4309	52.6786	-287.11	-14.7523	31.062	-294.128	-23.7461	12.8212	-303.839	-26.1074	2.16527	-257.147	-31.8341	-8.83162	-254.604	-37.7802	-30.7607	-254.732	-41.2858	-52.6127	-231.243	-27.3452	-17.1885	-223.085	-22.0675	-38.3217	-213.947	-13.0185	-63.656	-220.97	-3.46279	-6.45851	-225.788	22.2552	2.16507	-237.417	14.7526	25.1085	-208.166	-2.65819	7.48163	-218.478	19.2367	12.2772	-229.227	8.77534	33.7437	-225.562	-30.4926	36.1553	-232.807	-28.9686	68.2944	-254.654	-32.4669	45.0145	
133	1.10833	-276.247	-11.6681	52.058	-287.538	-13.1282	34.3834	-293.512	-21.5896	13.9946	-307.304	-28.4042	-0.185227	-260.434	-31.4237	-7.48332	-256.258	-36.3093	-30.0397	-256.257	-41.9638	-54.25	-232.051	-27.1143	-14.8487	-228.492	-22.2253	-38.4169	-215.224	-14.5009	-60.2928	-216.069	-5.88457	-2.74727	-226.86	20.1455	-1.05679	-237.946	13.4068	25.7566	-204.647	-1.88086	8.97868	-215.013	20.6594	11.9026	-230.527	11.5349	29.8849	-226.641	-32.252	41.1563	-232.263	-29.5242	67.4315	-253.343	-31.7816	49.0041	
134	1.11667	-274.868	-9.04865	54.2921	-284.523	-14.8002	30.1765	-292.885	-22.4813	12.2321	-305.093	-26.6032	-0.0495025	-259.813	-31.2535	-7.81487	-262.136	-36.7882	-33.3746	-255.885	-41.4131	-51.7976	-235.201	-26.9661	-15.8317	-227.433	-22.8302	-35.9043	-220.312	-12.6853	-63.6514	-217.462	-4.72814	-4.06316	-228.177	21.6074	-0.994777	-236.323	14.4879	27.1461	-205.108	0.799149	5.79968	-220.613	20.1329	10.7253	-233.487	9.79823	30.0071	-225.645	-29.7832	36.0573	-233.896	-30.8702	62.636	-255.649	-32.4658	46.2193	
135	1.125	-275.758	-8.64468	56.2388	-287.112	-12.2797	33.5065	-294.203	-21.9552	11.3935	-308.276	-25.8728	0.97325	-259.994	-31.4494	-12.3642	-257.297	-36.5995	-33.4417	-255	-42.6451	-54.174	-234.893	-25.9217	-15.7106	-229.99	-21.5101	-37.0913	-215.234	-11.6271	-64.3066	-222.726	-2.40358	-6.84807	-227.405	24.0888	0.919553	-239.302	15.2634	24.9384	-208.019	-2.44234	8.94063	-219.843	21.6602	11.7123	-233.24	12.4707	31.6925	-228.006	-30.2178	37.4584	-228.751	-28.5672	62.2001	-255.457	-30.7251	46.6751	
136	1.13333	-272.174	-9.36943	51.8139	-286.921	-14.088	30.6613	-296.288	-19.957	14.8273	-308.015	-26.7832	0.221924	-261.104	-30.4891	-12.6979	-257.665	-35.7093	-31.9682	-255.634	-41.3027	-52.1342	-235.184	-25.4325	-16.7928	-229.591	-20.3182	-39.8657	-220.741	-10.9288	-65.2793	-220.076	-3.13749	-4.5974	-226.645	21.5707	-3.34292	-237.629	16.4178	25.8351	-207.629	2.41102	5.3211	-217.226	22.8707	11.9878	-234.372	10.5062	33.1263	-229.438	-28.6011	39.12	-229.847	-28.4973	63.4792	-253.448	-30.1316	46.2771	
137	1.14167	-272.693	-9.36935	52.8985	-287.858	-11.8334	33.7109	-293.622	-21.202	11.9091	-305.619	-26.8417	-2.00797	-262.387	-29.3162	-8.02114	-263.504	-34.79	-32.8115	-261.734	-40.4641	-54.3569	-237.08	-24.0765	-13.1919	-230.227	-19.7363	-40.3315	-217.969	-11.6312	-62.5654	-218.871	-4.1862	-3.86494	-224.492	22.9094	-2.02623	-239.449	16.425	24.7	-209.108	1.13046	6.21548	-219.29	22.4093	12.2245	-233.94	15.2311	29.9888	-229.111	-29.604	38.6024	-231.668	-26.2655	64.6314	-257.194	-30.3566	46.1351	
138	1.15	-274.509	-6.74882	55.0845	-286.674	-10.719	33.1096	-297.5	-22.2719	10.2926	-307.802	-25.6295	-1.4754	-263.046	-30.106	-10.4114	-260.203	-35.6556	-33.2549	-261.278	-41.0576	-56.3755	-234.105	-24.866	-16.558	-229.415	-19.0299	-40.2889	-219.953	-12.5016	-62.1788	-221.686	-5.34087	-4.46114	-228.399	22.2317	-3.08466	-235.543	19.9614	23.9881	-212.392	1.20786	4.88824	-220.078	22.9068	12.2666	-234.039	15.4765	29.7804	-227.125	-31.1514	35.2186	-234.052	-26.1841	66.4985	-258.373	-29.6954	44.5886	
139	1.15833	-278.789	-8.45849	52.448	-289.936	-13.4772	30.9715	-295.462	-22.174	10.5849	-304.544	-26.4129	-0.946048	-266.248	-30.0969	-11.4204	-264.143	-35.3665	-34.3673	-260.03	-40.0482	-52.5431	-233.025	-25.3001	-17.4932	-230.377	-21.0082	-36.22	-222.978	-13.3948	-61.2256	-222.422	-2.37413	-5.76327	-229.008	24.3605	-0.500209	-240.659	17.3768	23.8566	-210.599	-2.14085	8.16145	-219.168	22.0151	10.2125	-232.539	12.6809	32.414	-230.748	-28.4976	39.6111	-233.46	-28.0004	61.776	-256.619	-28.4037	48.0578	
140	1.16667	-277.922	-8.97688	52.8694	-291.395	-12.2694	33.017	-298.145	-21.8623	11.8623	-309.506	-28.4551	-2.84541	-263.47	-30.0444	-11.1249	-262.111	-36.3596	-34.2888	-259.568	-40.9785	-53.5559	-238.625	-24.8036	-14.2056	-230.189	-20.7822	-37.2501	-223.221	-11.6199	-63.9795	-225.381	-3.52038	-6.13499	-233.479	24.3139	-0.424065	-243.145	16.4947	23.4922	-212.051	0.132254	6.81582	-221.632	21.8643	10.567	-236.094	13.0287	27.8294	-231.751	-28.2636	38.2884	-236.722	-25.5981	66.6747	-261.563	-30.662	45.3076	
